<?xml version="1.0" encoding="UTF-8"?>
<svg width="58px" height="289px" viewBox="0 0 58 289" version="1.1" xmlns="http://www.w3.org/2000/svg" xmlns:xlink="http://www.w3.org/1999/xlink">
    <!-- Generator: Sketch 44.1 (41455) - http://www.bohemiancoding.com/sketch -->
    <title>Untitled 2</title>
    <desc>Created with Sketch.</desc>
    <defs></defs>
    <g id="Page-1" stroke="none" stroke-width="1" fill="none" fill-rule="evenodd">
        <g id="ticks2" transform="translate(28.500000, 144.500000) rotate(90.000000) translate(-28.500000, -144.500000) translate(-116.000000, 116.000000)">
            <rect id="Rectangle-path" fill="#000000" fill-rule="nonzero" x="0.15" y="15" width="288.35" height="33"></rect>
            <path d="M0.65,15 L0.65,48" id="Shape" stroke="#FFFFFF" stroke-width="0.75"></path>
            <path d="M29.15,27 L29.15,48" id="Shape" stroke="#FFFFFF" stroke-width="0.5"></path>
            <path d="M14.9,27 L14.9,48" id="Shape" stroke="#FFFFFF" stroke-width="0.5"></path>
            <path d="M57.025,27 L57.025,48" id="Shape" stroke="#FFFFFF" stroke-width="0.5"></path>
            <path d="M43.338,27 L43.338,48" id="Shape" stroke="#FFFFFF" stroke-width="0.5"></path>
            <path d="M73,27 L73,48" id="Shape" stroke="#FFFFFF" stroke-width="0.5"></path>
            <path d="M86.813,27 L86.813,48" id="Shape" stroke="#FFFFFF" stroke-width="0.5"></path>
            <path d="M115.692,27 L115.692,48" id="Shape" stroke="#FFFFFF" stroke-width="0.5"></path>
            <path d="M102.025,27 L102.025,48" id="Shape" stroke="#FFFFFF" stroke-width="0.5"></path>
            <path d="M144.025,27 L144.025,48" id="Shape" stroke="#FFFFFF" stroke-width="0.75"></path>
            <path d="M129.879,27 L129.879,48" id="Shape" stroke="#FFFFFF" stroke-width="0.5"></path>
            <path d="M160.208,27 L160.208,48" id="Shape" stroke="#FFFFFF" stroke-width="0.5"></path>
            <path d="M188,27 L188,48" id="Shape" stroke="#FFFFFF" stroke-width="0.5"></path>
            <path d="M173.354,27 L173.354,48" id="Shape" stroke="#FFFFFF" stroke-width="0.5"></path>
            <path d="M201.75,27 L201.75,48" id="Shape" stroke="#FFFFFF" stroke-width="0.5"></path>
            <path d="M230.083,27 L230.083,48" id="Shape" stroke="#FFFFFF" stroke-width="0.5"></path>
            <path d="M215.938,27 L215.938,48" id="Shape" stroke="#FFFFFF" stroke-width="0.5"></path>
            <path d="M245.913,27 L245.913,48" id="Shape" stroke="#FFFFFF" stroke-width="0.5"></path>
            <path d="M260.079,27 L260.079,48" id="Shape" stroke="#FFFFFF" stroke-width="0.5"></path>
            <path d="M275.042,27 L275.042,48" id="Shape" stroke="#FFFFFF" stroke-width="0.5"></path>
        </g>
    </g>
</svg>